<?xml version="1.0" encoding="UTF-8"?>
<!DOCTYPE svg PUBLIC "-//W3C//DTD SVG 1.1//EN" "http://www.w3.org/Graphics/SVG/1.1/DTD/svg11.dtd">
<!-- Creator: CorelDRAW X7 -->
<svg xmlns="http://www.w3.org/2000/svg" xml:space="preserve" width="7.06467in" height="9.37883in" version="1.1" style="shape-rendering:geometricPrecision; text-rendering:geometricPrecision; image-rendering:optimizeQuality; fill-rule:evenodd; clip-rule:evenodd"
viewBox="0 0 380 504"
 xmlns:xlink="http://www.w3.org/1999/xlink">
 <defs>
  <style type="text/css">
   <![CDATA[
    .fil0 {fill:#81C04B}
    .fil1 {fill:#F1DF5F}
   ]]>
  </style>
 </defs>
 <g id="Layer_x0020_1">
  <metadata id="CorelCorpID_0Corel-Layer"/>
  <path class="fil0" d="M101 350c22,-2 14,34 24,43 8,7 30,-4 26,41 -1,18 -9,52 4,66 17,17 29,-17 24,-39 -2,-13 -17,-66 14,-73 17,-3 14,-2 22,-13 8,-11 32,-14 27,28 -3,16 -12,47 6,53 11,4 19,-2 21,-10 5,-15 -11,-66 3,-90 3,-6 12,-12 23,-9 10,4 3,18 16,20 18,3 14,-37 17,-50 5,-25 29,3 36,-32 2,-9 2,-19 4,-29 2,-9 5,-18 8,-27 23,-107 -54,-220 -172,-228 -87,-7 -149,44 -178,93 -18,30 -29,69 -25,110 2,22 6,36 12,56 5,19 7,36 10,57 6,40 14,32 34,33 11,1 12,2 13,22 0,11 -1,22 -2,33 -1,32 24,31 25,5 0,-19 -5,-50 8,-60z"/>
  <g id="_3104217586336">
   <path class="fil1" d="M93 201l0 81c0,5 4,10 9,10l65 0 0 -64 42 0 0 64 64 0c3,0 5,-2 7,-3 1,-1 3,-4 3,-6l0 -82c0,-1 -3,-3 -5,-5 -2,-2 -4,-3 -6,-5l-36 -30c-10,-8 -26,-20 -36,-29l-12 -10c-2,1 -4,3 -6,5l-18 14c-4,4 -8,7 -12,10 -2,2 -4,4 -6,5 -11,10 -26,21 -36,30l-16 13c-1,1 -1,1 -1,2z"/>
   <path class="fil1" d="M55 186c0,3 0,4 2,6 1,2 2,3 4,5 6,7 7,12 17,3 3,-3 6,-5 9,-7l16 -14c3,-3 6,-5 9,-7l71 -60c2,-1 3,-2 5,-3l50 41c3,3 6,5 9,7 3,3 5,5 8,7l17 14c7,7 18,15 25,21 1,1 3,3 4,4 7,5 11,-3 17,-10 2,-2 3,-4 3,-5l0 -2c-1,-4 -5,-6 -8,-9 -2,-2 -4,-3 -5,-4l-10 -8c-2,-2 -13,-12 -15,-12l0 -58c0,-6 2,-15 -5,-15l-33 0c-3,0 -4,3 -5,6l0 31 -36 -30c-6,-6 -9,-8 -18,-8 -8,0 -16,9 -23,14 -16,13 -36,31 -53,44l-52 44c-2,1 -3,3 -3,5z"/>
  </g>
 </g>
</svg>
